solid pir-tower
facet normal -1.0 0.0 -1.1796119636642293e-16
  outer loop
    vertex 72.24568843855377 38.249083289883025 -2.1815999999999987
    vertex 72.24568843855381 -1.4281946598072144 -4.363200000000029
    vertex 72.24568843855377 -1.4281946598072144 -2.1815999999999987
  endloop
endfacet
facet normal -1.0 0.0 -1.1796119636642293e-16
  outer loop
    vertex 72.24568843855381 -1.4281946598072144 -4.363200000000029
    vertex 72.24568843855377 38.249083289883025 -2.1815999999999987
    vertex 72.24568843855381 38.249083289883025 -4.363200000000029
  endloop
endfacet
facet normal 1.179611963664229e-16 0.0 -1.0
  outer loop
    vertex 111.95140705052236 38.249083289883025 -4.363200000000033
    vertex 72.24568843855381 -1.4281946598072144 -4.363200000000029
    vertex 72.24568843855381 38.249083289883025 -4.363200000000029
  endloop
endfacet
facet normal 1.179611963664229e-16 0.0 -1.0
  outer loop
    vertex 72.24568843855381 -1.4281946598072144 -4.363200000000029
    vertex 111.95140705052236 38.249083289883025 -4.363200000000033
    vertex 111.95140705052236 -1.4281946598072144 -4.363200000000033
  endloop
endfacet
facet normal 1.0 0.0 1.1796119636642293e-16
  outer loop
    vertex 111.95140705052236 38.249083289883025 -4.363200000000033
    vertex 111.95140705052246 -1.4281946598072144 -2.181599999999996
    vertex 111.95140705052236 -1.4281946598072144 -4.363200000000033
  endloop
endfacet
facet normal 1.0 0.0 1.1796119636642293e-16
  outer loop
    vertex 111.95140705052246 -1.4281946598072144 -2.181599999999996
    vertex 111.95140705052236 38.249083289883025 -4.363200000000033
    vertex 111.95140705052246 38.249083289883025 -2.181599999999996
  endloop
endfacet
facet normal 0.0 -1.0 0.0
  outer loop
    vertex 111.95140705052246 -1.4281946598072144 -2.181599999999996
    vertex 72.24568843855381 -1.4281946598072144 -4.363200000000029
    vertex 111.95140705052236 -1.4281946598072144 -4.363200000000033
  endloop
endfacet
facet normal 0.0 -1.0 0.0
  outer loop
    vertex 72.24568843855381 -1.4281946598072144 -4.363200000000029
    vertex 111.95140705052246 -1.4281946598072144 -2.181599999999996
    vertex 72.24568843855377 -1.4281946598072144 -2.1815999999999987
  endloop
endfacet
facet normal -1.179611963664229e-16 0.0 1.0
  outer loop
    vertex 109.93814974453817 0.7568363729072941 5.639932965095795e-15
    vertex 74.25894574453812 36.06405225716851 -1.9034773757198308e-14
    vertex 74.25894574453812 0.7568363729072941 -1.9034773757198308e-14
  endloop
endfacet
facet normal -1.179611963664229e-16 0.0 1.0
  outer loop
    vertex 74.25894574453812 36.06405225716851 -1.9034773757198308e-14
    vertex 109.93814974453817 0.7568363729072941 5.639932965095795e-15
    vertex 109.93814974453817 36.06405225716851 5.639932965095795e-15
  endloop
endfacet
facet normal 1.0 0.0 1.0595690991266336e-14
  outer loop
    vertex 109.93814974453817 36.06405225716851 -2.181599999999941
    vertex 109.93814974453817 0.7568363729072941 5.639932965095795e-15
    vertex 109.93814974453817 0.7568363729072941 -2.181599999999941
  endloop
endfacet
facet normal 1.0 0.0 1.0595690991266336e-14
  outer loop
    vertex 109.93814974453817 0.7568363729072941 5.639932965095795e-15
    vertex 109.93814974453817 36.06405225716851 -2.181599999999941
    vertex 109.93814974453817 36.06405225716851 5.639932965095795e-15
  endloop
endfacet
facet normal -1.0 0.0 -1.1796119636642293e-16
  outer loop
    vertex 74.25894574453812 36.06405225716851 -1.9034773757198308e-14
    vertex 74.25894574453811 0.7568363729072941 -2.181600000000004
    vertex 74.25894574453812 0.7568363729072941 -1.9034773757198308e-14
  endloop
endfacet
facet normal -1.0 0.0 -1.1796119636642293e-16
  outer loop
    vertex 74.25894574453811 0.7568363729072941 -2.181600000000004
    vertex 74.25894574453812 36.06405225716851 -1.9034773757198308e-14
    vertex 74.25894574453811 36.06405225716851 -2.181600000000004
  endloop
endfacet
facet normal 0.0 1.0 0.0
  outer loop
    vertex 74.25894574453812 36.06405225716851 -1.9034773757198308e-14
    vertex 109.93814974453817 36.06405225716851 -2.181599999999941
    vertex 74.25894574453811 36.06405225716851 -2.181600000000004
  endloop
endfacet
facet normal 0.0 1.0 0.0
  outer loop
    vertex 109.93814974453817 36.06405225716851 -2.181599999999941
    vertex 74.25894574453812 36.06405225716851 -1.9034773757198308e-14
    vertex 109.93814974453817 36.06405225716851 5.639932965095795e-15
  endloop
endfacet
facet normal 0.0 -1.0 0.0
  outer loop
    vertex 109.93814974453817 0.7568363729072941 -2.181599999999941
    vertex 74.25894574453812 0.7568363729072941 -1.9034773757198308e-14
    vertex 74.25894574453811 0.7568363729072941 -2.181600000000004
  endloop
endfacet
facet normal 0.0 -1.0 0.0
  outer loop
    vertex 74.25894574453812 0.7568363729072941 -1.9034773757198308e-14
    vertex 109.93814974453817 0.7568363729072941 -2.181599999999941
    vertex 109.93814974453817 0.7568363729072941 5.639932965095795e-15
  endloop
endfacet
facet normal -1.179611963664229e-16 0.0 1.0
  outer loop
    vertex 72.24568843855377 -1.4281946598072144 -2.1815999999999987
    vertex 74.25894574453811 0.7568363729072941 -2.181600000000004
    vertex 72.24568843855377 38.249083289883025 -2.1815999999999987
  endloop
endfacet
facet normal -1.179611963664229e-16 0.0 1.0
  outer loop
    vertex 74.25894574453811 0.7568363729072941 -2.181600000000004
    vertex 72.24568843855377 -1.4281946598072144 -2.1815999999999987
    vertex 111.95140705052246 -1.4281946598072144 -2.181599999999996
  endloop
endfacet
facet normal -1.179611963664229e-16 0.0 1.0
  outer loop
    vertex 74.25894574453811 0.7568363729072941 -2.181600000000004
    vertex 111.95140705052246 -1.4281946598072144 -2.181599999999996
    vertex 109.93814974453817 0.7568363729072941 -2.181599999999941
  endloop
endfacet
facet normal -1.179611963664229e-16 0.0 1.0
  outer loop
    vertex 109.93814974453817 0.7568363729072941 -2.181599999999941
    vertex 111.95140705052246 -1.4281946598072144 -2.181599999999996
    vertex 109.93814974453817 36.06405225716851 -2.181599999999941
  endloop
endfacet
facet normal -1.179611963664229e-16 0.0 1.0
  outer loop
    vertex 72.24568843855377 38.249083289883025 -2.1815999999999987
    vertex 74.25894574453811 36.06405225716851 -2.181600000000004
    vertex 111.95140705052246 38.249083289883025 -2.181599999999996
  endloop
endfacet
facet normal -1.179611963664229e-16 0.0 1.0
  outer loop
    vertex 74.25894574453811 36.06405225716851 -2.181600000000004
    vertex 72.24568843855377 38.249083289883025 -2.1815999999999987
    vertex 74.25894574453811 0.7568363729072941 -2.181600000000004
  endloop
endfacet
facet normal -1.179611963664229e-16 0.0 1.0
  outer loop
    vertex 111.95140705052246 38.249083289883025 -2.181599999999996
    vertex 74.25894574453811 36.06405225716851 -2.181600000000004
    vertex 109.93814974453817 36.06405225716851 -2.181599999999941
  endloop
endfacet
facet normal -1.179611963664229e-16 0.0 1.0
  outer loop
    vertex 111.95140705052246 38.249083289883025 -2.181599999999996
    vertex 109.93814974453817 36.06405225716851 -2.181599999999941
    vertex 111.95140705052246 -1.4281946598072144 -2.181599999999996
  endloop
endfacet
facet normal 0.0 1.0 0.0
  outer loop
    vertex 72.24568843855381 38.249083289883025 -4.363200000000029
    vertex 111.95140705052246 38.249083289883025 -2.181599999999996
    vertex 111.95140705052236 38.249083289883025 -4.363200000000033
  endloop
endfacet
facet normal 0.0 1.0 0.0
  outer loop
    vertex 111.95140705052246 38.249083289883025 -2.181599999999996
    vertex 72.24568843855381 38.249083289883025 -4.363200000000029
    vertex 72.24568843855377 38.249083289883025 -2.1815999999999987
  endloop
endfacet
endsolid pir-tower
