solid pir-tower-solid-3
facet normal 0.0 0.0 1.0
  outer loop
    vertex 121.23407734137729 -1.4281946598072144 4.363200000000001
    vertex 81.52835872940868 38.249083289883025 4.363200000000001
    vertex 81.52835872940868 -1.4281946598072144 4.363200000000001
  endloop
endfacet
facet normal 0.0 0.0 1.0
  outer loop
    vertex 81.52835872940868 38.249083289883025 4.363200000000001
    vertex 121.23407734137729 -1.4281946598072144 4.363200000000001
    vertex 121.23407734137729 38.249083289883025 4.363200000000001
  endloop
endfacet
facet normal 1.0 0.0 0.0
  outer loop
    vertex 121.23407734137729 38.249083289883025 2.1816000000000004
    vertex 121.23407734137729 -1.4281946598072144 4.363200000000001
    vertex 121.23407734137729 -1.4281946598072144 2.1816000000000004
  endloop
endfacet
facet normal 1.0 0.0 0.0
  outer loop
    vertex 121.23407734137729 -1.4281946598072144 4.363200000000001
    vertex 121.23407734137729 38.249083289883025 2.1816000000000004
    vertex 121.23407734137729 38.249083289883025 4.363200000000001
  endloop
endfacet
facet normal -1.0 0.0 0.0
  outer loop
    vertex 81.52835872940868 38.249083289883025 4.363200000000001
    vertex 81.52835872940868 -1.4281946598072144 2.1816000000000004
    vertex 81.52835872940868 -1.4281946598072144 4.363200000000001
  endloop
endfacet
facet normal -1.0 0.0 0.0
  outer loop
    vertex 81.52835872940868 -1.4281946598072144 2.1816000000000004
    vertex 81.52835872940868 38.249083289883025 4.363200000000001
    vertex 81.52835872940868 38.249083289883025 2.1816000000000004
  endloop
endfacet
facet normal 0.0 -1.0 0.0
  outer loop
    vertex 121.23407734137729 -1.4281946598072144 4.363200000000001
    vertex 81.52835872940868 -1.4281946598072144 2.1816000000000004
    vertex 121.23407734137729 -1.4281946598072144 2.1816000000000004
  endloop
endfacet
facet normal 0.0 -1.0 0.0
  outer loop
    vertex 81.52835872940868 -1.4281946598072144 2.1816000000000004
    vertex 121.23407734137729 -1.4281946598072144 4.363200000000001
    vertex 81.52835872940868 -1.4281946598072144 4.363200000000001
  endloop
endfacet
facet normal 0.0 1.0 0.0
  outer loop
    vertex 81.52835872940868 38.249083289883025 4.363200000000001
    vertex 121.23407734137729 38.249083289883025 2.1816000000000004
    vertex 81.52835872940868 38.249083289883025 2.1816000000000004
  endloop
endfacet
facet normal 0.0 1.0 0.0
  outer loop
    vertex 121.23407734137729 38.249083289883025 2.1816000000000004
    vertex 81.52835872940868 38.249083289883025 4.363200000000001
    vertex 121.23407734137729 38.249083289883025 4.363200000000001
  endloop
endfacet
facet normal 0.0 0.0 -1.0
  outer loop
    vertex 81.52835872940868 38.249083289883025 2.1816000000000004
    vertex 83.54161603539296 36.06405225716851 2.1816000000000004
    vertex 81.52835872940868 -1.4281946598072144 2.1816000000000004
  endloop
endfacet
facet normal 0.0 0.0 -1.0
  outer loop
    vertex 83.54161603539296 36.06405225716851 2.1816000000000004
    vertex 81.52835872940868 38.249083289883025 2.1816000000000004
    vertex 121.23407734137729 38.249083289883025 2.1816000000000004
  endloop
endfacet
facet normal 0.0 0.0 -1.0
  outer loop
    vertex 83.54161603539296 36.06405225716851 2.1816000000000004
    vertex 121.23407734137729 38.249083289883025 2.1816000000000004
    vertex 119.220820035393 36.06405225716851 2.1816000000000004
  endloop
endfacet
facet normal 0.0 0.0 -1.0
  outer loop
    vertex 119.220820035393 36.06405225716851 2.1816000000000004
    vertex 121.23407734137729 38.249083289883025 2.1816000000000004
    vertex 119.220820035393 0.7568363729072941 2.1816000000000004
  endloop
endfacet
facet normal 0.0 0.0 -1.0
  outer loop
    vertex 81.52835872940868 -1.4281946598072144 2.1816000000000004
    vertex 83.54161603539296 0.7568363729072941 2.1816000000000004
    vertex 121.23407734137729 -1.4281946598072144 2.1816000000000004
  endloop
endfacet
facet normal 0.0 0.0 -1.0
  outer loop
    vertex 83.54161603539296 0.7568363729072941 2.1816000000000004
    vertex 81.52835872940868 -1.4281946598072144 2.1816000000000004
    vertex 83.54161603539296 36.06405225716851 2.1816000000000004
  endloop
endfacet
facet normal 0.0 0.0 -1.0
  outer loop
    vertex 121.23407734137729 -1.4281946598072144 2.1816000000000004
    vertex 83.54161603539296 0.7568363729072941 2.1816000000000004
    vertex 119.220820035393 0.7568363729072941 2.1816000000000004
  endloop
endfacet
facet normal 0.0 0.0 -1.0
  outer loop
    vertex 121.23407734137729 -1.4281946598072144 2.1816000000000004
    vertex 119.220820035393 0.7568363729072941 2.1816000000000004
    vertex 121.23407734137729 38.249083289883025 2.1816000000000004
  endloop
endfacet
facet normal 0.0 0.0 -1.0
  outer loop
    vertex 119.220820035393 36.06405225716851 0.0
    vertex 83.54161603539299 0.7568363729072941 0.0
    vertex 83.54161603539299 36.06405225716851 0.0
  endloop
endfacet
facet normal 0.0 0.0 -1.0
  outer loop
    vertex 83.54161603539299 0.7568363729072941 0.0
    vertex 119.220820035393 36.06405225716851 0.0
    vertex 119.220820035393 0.7568363729072941 0.0
  endloop
endfacet
facet normal -1.0 0.0 -1.0237502081857049e-14
  outer loop
    vertex 83.54161603539296 36.06405225716851 2.1816000000000004
    vertex 83.54161603539299 0.7568363729072941 0.0
    vertex 83.54161603539296 0.7568363729072941 2.1816000000000004
  endloop
endfacet
facet normal -1.0 0.0 -1.0237502081857049e-14
  outer loop
    vertex 83.54161603539299 0.7568363729072941 0.0
    vertex 83.54161603539296 36.06405225716851 2.1816000000000004
    vertex 83.54161603539299 36.06405225716851 0.0
  endloop
endfacet
facet normal 1.0 0.0 0.0
  outer loop
    vertex 119.220820035393 36.06405225716851 0.0
    vertex 119.220820035393 0.7568363729072941 2.1816000000000004
    vertex 119.220820035393 0.7568363729072941 0.0
  endloop
endfacet
facet normal 1.0 0.0 0.0
  outer loop
    vertex 119.220820035393 0.7568363729072941 2.1816000000000004
    vertex 119.220820035393 36.06405225716851 0.0
    vertex 119.220820035393 36.06405225716851 2.1816000000000004
  endloop
endfacet
facet normal -0.0 1.0 -0.0
  outer loop
    vertex 83.54161603539296 36.06405225716851 2.1816000000000004
    vertex 119.220820035393 36.06405225716851 0.0
    vertex 83.54161603539299 36.06405225716851 0.0
  endloop
endfacet
facet normal -0.0 1.0 -0.0
  outer loop
    vertex 119.220820035393 36.06405225716851 0.0
    vertex 83.54161603539296 36.06405225716851 2.1816000000000004
    vertex 119.220820035393 36.06405225716851 2.1816000000000004
  endloop
endfacet
facet normal 0.0 -1.0 0.0
  outer loop
    vertex 119.220820035393 0.7568363729072941 2.1816000000000004
    vertex 83.54161603539299 0.7568363729072941 0.0
    vertex 119.220820035393 0.7568363729072941 0.0
  endloop
endfacet
facet normal 0.0 -1.0 0.0
  outer loop
    vertex 83.54161603539299 0.7568363729072941 0.0
    vertex 119.220820035393 0.7568363729072941 2.1816000000000004
    vertex 83.54161603539296 0.7568363729072941 2.1816000000000004
  endloop
endfacet
endsolid pir-tower-solid-3
